<?xml version="1.0" encoding="utf-8"?>
<!-- Generator: Adobe Illustrator 28.4.1, SVG Export Plug-In . SVG Version: 6.00 Build 0)  -->
<svg version="1.1" id="图层_1" xmlns="http://www.w3.org/2000/svg" xmlns:xlink="http://www.w3.org/1999/xlink" x="0px" y="0px"
	 viewBox="0 0 1024 768" style="enable-background:new 0 0 1024 768;" xml:space="preserve">
<style type="text/css">
	.st0{display:none;fill-rule:evenodd;clip-rule:evenodd;}
	.st1{fill-rule:evenodd;clip-rule:evenodd;fill:#CAE7FF;}
	.st2{fill-rule:evenodd;clip-rule:evenodd;}
</style>
<g>
	<g transform="translate(-68.000000, -33.000000)">
		<rect x="68.4" y="32.9" class="st0" width="1024" height="768"/>
		<path class="st1" d="M730.4,324.9c-7.6,14.9-15.7,29.5-23.8,44.1c-4.3,7.8-18.2,39.8-21.8,41.1c-3.9,1.3-27.6-12.6-34.4-15.3
			c-12.1-4.9-23.6-9.4-36.2-12.4c-14.1-3.3-28.4-5.8-43-4.6c-6.4,0.5-17,2.1-10.7-6.9c4.7-6.6,9.2-12.6,15.5-17.4
			c4.6-3.5,11.3-9.8,16.7-12.1c5.6-2.4,14-1.9,20.1-1.7c6.6,0.2,37.8,9.9,39.6-0.3c3.2,2.9,5,1.8,8.7,3.2c4.1,1.6,6.7,4.7,10.8,6.6
			c2.7,1.2,7.5,6,10.5,6.1c3.9,0,5-3.2,7.8-5.6c6.3-5.4,14.7-8.9,21.6-13.6C717.7,331.8,723.4,327.5,730.4,324.9z M661.6,206.9
			c-0.5,6.8,1.3,13.1,1.3,20.2c0,3.1-0.2,6.1,0.8,9.1c0.8,2.6,0.3,7.4,0.7,10.2c-7.8-2.4-22.3-5.9-30.3-2.7
			c-7.6,3.1-8.6,17.2-8.8,24.1c-0.2,4.7,1.9,11.9,0.3,16.4c-0.7,2.1-0.7,2.8-0.7,3l0,0c-0.2-0.1-0.8-0.1-2.9,1.5
			c-2.1,1.5-4.7,2.4-6.8,4.1c-3.8,3.1-4.5,6.6-6.4,11.1c-1.8,4.4-6.8,8.2-12.2,8.1c4.4-8,10.5-15.4,7-24.8c-2.6-7.1,2-15.4,5.6-22.1
			c1.2-2.2,14.6-19.3,8.7-20.5c-3.9-0.8-12.7,17.3-14.4,20.5c-4.7-3.2-6.8-7.1-3.2-11.9c2.8-3.7,6.2-6.9,8.9-10.7
			c4.4-6.2,8.7-13.6,14-19.1C632.3,213.5,648.4,206.9,661.6,206.9z M624.9,287.1C624.9,287.1,624.9,287.2,624.9,287.1L624.9,287.1z
			 M785.3,196.3c5.9,5.6,13.3,10.3,19,16.2c5,5.2,11.7,13.9,14,20.8c-12.1,2.3-32.3,9.5-37.1,22.2c-18.9-17.3-26.2,14.3-29.9,27.6
			c-11-4.8-8.8-20.7-8.7-30c0.1-7.4,4.6-16.1-6.1-16.7c-8-0.4-15.8,2.8-23,5.9c-9,3.8-18.4,9.5-25.7,16l-7.6-5.9
			c12.4-7,18.9-20.3,26.2-32.5c2.3-3.9,5.4-8.2,7.1-12.4c1.2-2.9,2-8.8,3.3-11.4c2-4.1,21.7-5.2,26.9-6.2
			C757.6,187.2,774.1,185.5,785.3,196.3z"/>
		<g transform="translate(67.995213, 33.042686)">
			<path class="st2" d="M816.5,292.3c-0.2-1.6,1-4.9,1.1-6.4c1.2-16.2-6.9-35.1-17.6-46.8c-10.6-11.5-18.7-25.8-28.3-38.1
				C761.1,187.6,749.9,175,739,162c-5.8-6.9-11.1-15.2-19.6-19c-7.3-3.2-15.2-2.2-22.9-1.3c-15.2,1.7-29.1,9.5-43,15
				c1.7-7.7-1.9-14.9-2.8-22.4c4.6,3.1,11.3,9.8,17.4,7.7c6.4-2.2,4.8-10.1,10-12.6c3.5-1.7,6,0,9.1-3.1c2.7-2.6,3.8-6.8,4.8-10.3
				c0.8-2.7,2.3-6.6,1.2-9.5c-1.5-3.9-2.6-2.8-5.2-1.8c-1.5,0.6-4,4.5-6,4c-0.9-0.3-2-4.6-3.1-5.6c-1.4-1.1-4.3-0.7-4.8-2.4
				c-0.5-1.9,2.7-7.6,3.1-9.8c1.1-6.5,1-14.8-2.5-20.5c-1.5-2.4-4.1-4.2-5.9-6.3c-2.1-2.4-2.2-3.6-3.4-6.7c-0.9-2.3-1.9-5.3-3.5-7.1
				c-1.7-1.9-4.6-1.7-6.1-3.3c-1.5-1.6-0.9-4.8-2.3-6.7c-1.8-2.4-4.2-2.8-7-3.6c-3.1-0.9-5.9-1.3-8.8-2.7c-2.9-1.5-4.4-2.8-7.9-3.4
				c-7.3-1.2-14.5,0-21.8,0.5c-6.4,0.5-12.7-2.6-18.9,0c-3.1,1.3-5,4.6-7.9,5.9c-2.6,1.1-4.2-0.5-6.5,1.4
				c-4.8,4.2-1.5,13.2-1.5,18.2c0,3.4-2.9,17.8,4.9,13.9c-0.8,4.1-0.6,13-3.2,16.5c-2.5,3.5-8.2,1-11,4.2c-5.2,6,0,10.5,4.3,13.9
				c3.4,2.7,4.2,2.9,4.6,7.2c0.2,2.9-0.3,6.5-0.3,9.4c0,6-0.5,12.7,1.4,18.4c1.8,5.5,3.5,5.3,8.6,6.3c4.6,0.9,8.6,1.7,13.4,1.7
				c3.2,0,7.4-2.4,10.2-2.1c2.9,0.3,4.2,5.3,5.7,8.4c-6.1,2.3-11.9,5.7-17.9,7.9c-5,1.8-10.6,1.3-15.8,2.2
				c-10.7,1.8-17.5,10.2-24.1,18.1c-4,4.8-6.9,10.7-10.1,16c-3.1,5.1-6.6,13.4-11,17.3c-1.2,1.1-4.3,1.8-5,2.8
				c-1.3,1.7,0,3.6-0.6,4.9c-1.9,4.2-9.4,8.6-12.8,11.9c-16.1,15.4-32.6,32.5-42.3,53c-3.7,7.8-8.7,23.5-2.7,31.6
				c5.7,7.7,25.9,0.3,33.5-1.9c-2.1,4.3-4.5,8.6-6.6,12.9c-0.9,1.8-3.3,4.8-3.4,7c-0.1,4,2.1,3,5.6,3.9c11.9,3.1,23.3,7.9,34.4,13.1
				c-3.5,2.6-19.5-5.3-23.7-6.5c-8.8-2.6-17.8-4.3-26.5-7c-16.4-5.1-32.6-9.5-49-14.2c-14.9-4.2-29.8-7.7-44.7-11.8
				c-15.7-4.3-29.7-9.3-46.4-7c-6.9,1-13.7,1.6-19.7,4.7c-5.4,2.8-10,6.3-14.4,10.6c-11.1,10.9-20.5,23.4-31.4,34.4
				c-22.4,22.6-43.2,48-61.6,73.9c-9.3,13-17.3,26.9-25.3,40.7c-4.4,7.5-10.1,15.2-13.5,23.2c-0.5,1.3-1.4,2.9-1.4,4.4
				c0,0.6,1.8,4.2,1.7,4.5c-0.6,2.4-7.7,7-9.6,8.5c-6.5,5.1-15,8.3-22.4,12.1c-5.2,2.7-9.9,5-15.3,7c-14.2,5.3-29,10.2-42.2,17.9
				c-6.8,4-11.2,10-11.4,18c-0.2,7.6,4.8,12.1,10.2,16.7c3.4,2.9,7,6.8,11.6,7.3c3.8,0.4,7.9-1.8,11.5-2.8
				c6.2-1.9,12.2-4.2,18.4-6.1c13.3-4.2,26.8-8.1,40.8-8.6c10.9-0.4,26.8-1.6,35.4-9.2c5.6-4.9,7.4-13.1,9-20.3
				c1.2-5.2,1.1-16.3,4.9-20.3c0.6-0.6,2.4,0.7,3.4-0.3c0.4-0.4,0.4-1.5,0.8-2c2.5-3.2,4.6-7.1,6.9-10.5c4-5.9,7.6-11.9,12-17.5
				c9.1-11.6,20.3-21,31.4-30.7c6.7-5.9,13.8-11.5,20.7-17.2c5.1-4.3,11.1-12.9,17.5-14.8c4.8,27.5,12.5,55.2,21.2,81.7
				c8.5,25.9,14.7,52.6,25,78c4.8,11.8,10.4,23.2,15.4,34.9c2.2,5.2,3.3,9.4,8.1,12.8c1.3,0.9,4.6,1.8,5.5,3
				c1.2,1.7,0.3,5.1,0.5,7.7c0.3,3.3,1.7,6.5,2,9.7c0.4,4.1-1,4.1-4.6,6.7c-5.4,3.9-11,7.6-16.4,11.5c-9,6.4-18.4,12.6-28,17.5
				c-8.4,4.3-20.9,10.6-27.1,17.9c-2.2,2.6-4.2,9.6-2.5,12.8c2.2,4.1,7.9,2.2,11.8,2.7c6.2,0.8,10.6,4.6,17.2,4.1
				c4.8-0.3,8.9-2.6,13.2-4.5c10.7-4.7,21.9-7.4,32.8-10.9c12.6-4.1,25.8-3.7,38.3-7.3c10-2.9,18.1-8.5,18.9-19.2
				c1-13.1-3.5-26.9-9.4-38.5c-3.2-6.3-4.9-7.9-2.4-14.3c2.1-5.2,0.9-7.3-0.6-12.4c-3.3-11.6-3.9-24.4-6.7-36.2
				c-2.7-11.4-5.9-23.5-7.6-35.1c-3.1-21.9-4.5-43.5-8.6-65.2c5.9,2.7,11.4,5.2,17.4,7c2.2,0.6,6.9,0.6,8.6,1.5
				c2.8,1.4,2,6.4,2.2,9.6c1.1,16.5,2.9,32.8,4.2,49.3c2.1,26.8,7.5,53,11.5,79.5c2.2,14.3,5,28.7,9.4,42.5
				c2.9,9.2,5.3,31.1,20.5,27.7c8-1.8,7.8-7.7,6.6-14.3c-1.2-7.1-2.1-14-2.9-21.1c-1.4-12.4-3.1-24.7-3.8-37.2
				c-0.9-13.9-2.7-27.8-3-41.8c-0.3-13.2,0.2-26.4-0.1-39.5c-0.4-10.9,0.9-22.6,2.3-33.5c0.4-3.4,1-6.8,1.5-10.3
				c0.1-0.9,0.3-8.4,0.9-8.9c1.9-1.7,16.7,0.4,18.9,0.4c12.4,0.2,25-0.3,37.2-1c5.1-0.3,10.3-0.5,15.4-0.9c6-0.5,14.2-3.2,20.1-2.2
				c-3.3,13.5-3.5,28.1-3.8,41.9c-0.2,12.2-1.1,24.6,0.4,36.7c1.1,9.1,1,28.4,8.9,34.6c10.3,8,9.2-17.4,10-23.4
				c3.2-24.8,10.1-49.5,11.6-74.4c0.3-5.3,0.6-11.5,1.8-16.7c1.2-4.8-1.2-2,2.4-4.5c2-1.3,5.7-1.9,8.1-2.7c7-2.4,13.7-5.5,20.6-8.1
				c6.6-2.5,7.9-3.5,11.9-9.2c-1.3,20.9-5.7,41.4-7.4,62.3c-1.7,20.7-2.8,41.9-1.9,62.6c0.8,19.2,2.1,38.4,3.1,57.5
				c0.5,9.5,2.1,19.2,5.2,28.2c2.1,6,8.2,17,15.9,16.3c13.1-1.1,8.7-30.5,8.6-39.3c-0.1-15.7,0-31.3,0.4-47
				c0.9-32.9,2.3-66.3,6.6-99.3c4.7-36.3,9.3-72.2,16-108.2c5.9-31.7,12.6-62.6,18.2-94.5c0.5-2.9,1-14,3.2-16.2
				c2.4-2.3,6.8,0.1,10.7,1c7.1,1.6,13.9,3.1,20.7,5.6c7.7,2.8,15.1,7.5,23.5,8.7c8.1,1.1,18.1,1,26.2,0c6.1-0.8,14.2-2.4,19.6-5.5
				c3.1-1.8,4.2-3.7,4.3-7C817.7,295,816.6,293.5,816.5,292.3z M207,534.5c-1.6,5.8-2.6,12.4-5.6,17.7c-3.3,5.9-10.3,7.1-16.4,8.4
				c-7.8,1.7-16,2.4-24,2.9c-4.6,0.3-11.4,2.7-15.5,1.9c-12.2,1.4-25.9,4.4-37.1,9.1c-3.3,1.4-6.3,3.4-9.7,4.4
				c-4.6,1.4-4.7,0.7-8-2.2c-4.1-3.5-11.5-5.4-6.7-10.7c4.3-4.6,11.9-5.3,17.4-7.4c6.9-2.6,13.4-5.9,20.5-8.3
				c12.8-4.3,24-9.3,36-15.9c6.7-3.6,11.8-7.9,16-14.2c1.9-2.8,3.2-7.1,5.4-9.5c0.3-2.6,1.6-3.3,3.9-2c1.8,0.3,3.6,0.7,5.3,1
				c5.9,1.6,11.2,5.6,16.6,8.4c4.3,2.3,4.9,1.4,4.9,5.6C210.1,527,207.9,531.4,207,534.5z M655.5,172.2c1.1-2.7,0.3-8.2,1.7-10.4
				c2.3-3.5,16.3-4.8,21.2-5.7c14.5-2.9,35.2-6.7,46.6,5c5.8,5.9,10.3,13,16.1,19.1c4.6,4.8,11.3,10.7,13.5,17.1
				c-12.1,2.3-29.3,6.7-34.1,19.4c-18.9-17.4-26.7,14-30.5,27.2c-11.4-5-7.2-18.8-7.2-28.3c0-7.2,4.4-15.7-6.1-16.4
				c-8.4-0.6-17.9,3.1-25.5,6.4c-8.5,3.7-16.6,8.7-23.5,14.9l-6.4-5c12.8-7.2,20.5-19.9,28-32.6C651.5,179.4,654,175.9,655.5,172.2z
				 M709.7,250.3c-1.1,0.4-7.2,1.2-8.5,0.5c-5.5-2.8,0.8-13.6,2.3-18.1c1.2-3.6,3.5-9.7,8.9-6c3.9,2.6,0.5,10.2,0.2,14.2v6.1
				C713.7,250,712.7,251.1,709.7,250.3z M673.6,229c-1.4,1.2-5.2-0.7-6.6-0.9c-6.8-0.9-18.6-2.6-24.2,1.5c-5.4,4-5.7,13.2,2.1,14
				c-4.4,3.3-10.1,5.8-9.7,12.1c0.1,1.7,0.6,3.3,1.4,4.7c2.1,1.3,2.2,2.7,0.1,4.1c-0.6,2.3-2.3,3.3-2.2,6.1c0.1,2.7,0.7,3.2,2.1,5
				c0.7,0.4,1.5,0.5,2.3,0.4c1.7-0.5,2.2,0.2,1.7,2.1c1.3,1.4,0.5,3.4,2.7,4.4c2.8,1.3,6.2-1.4,9.1-0.2c-7,3.9-13.4,8.7-19.3,14.1
				c-2.6,2.4-5.3,6.6-8.2,8.5c-1,2.7-2.6,3-4.8,1.1c-1.4-0.5-2.8-1.1-4.1-1.7c-5.8-2.6-15.5-5.3-20.2-9.3c-3.6-3.1-0.8-1.8-1.6-5.7
				c-0.6-2.7-2.6-4.2-3.1-6.4c5.5-0.5,9.1-3,6.6-8.8c-2.2-5.2-9.2-7-13.9-9.3c5.7-2.4,27.1-5.5,14.8-16.2
				c-8.6-7.5-20.9,0.9-30.3,0.9c4.3-2.9,3-6.7,3.1-11c0.2-4.6,1.4-9.3,2.3-13.8c1.2-5.7,2.4-4.4,7.6-4.1c4.8,0.2,9.2,0.4,14,1.1
				c5.2,0.8,10,1.8,15.1,3.1c2.6,0.6,8.1,0.8,9.8,3.5c1.5,2.5-1.2,10.6-1.5,13.4c-0.5,4.2-0.7,8.4-0.9,12.6
				c-0.2,5.1,0,10.2-0.3,15.2c-0.2,3.7-2,8.2,0.8,11.2c7.3,7.7,7.7-13.1,8.2-17.1c1.1-9.1,3.7-18.4,3.8-27.7
				c0.1-9.8,5.5-10.4,14-14.4c7.6-3.5,18.5-11,27.1-10.7c3.6,0.1,1.9-2.4,2.7,2.6c0.4,2.4-0.2,5.3-0.3,7.7
				C673.9,222.3,674.5,228.3,673.6,229z M584.2,288.7c-3.4,0.6-8.9-0.4-6.5,5.3c1.2,2.8,7.6,2.7,7.4,5.2c0.5,0.2,0.9,0.3,1.4,0.5
				c-1.6,2.4-9.3,0-11.7-0.9c-3.6-1.4-6.5-1.5-10.4-2.5c-9.4-2.3-14.1-9.7-12.9-19c1-8,6.5-15.3,13.6-19.3c3.1-1.8,24.9-8,25.4-3.6
				c-5.1,1.9-23.1,6.3-23.5,12.7c-0.3,5.1,9,3.3,12.9,3.9c2.6,0.4,9.2,0.9,6.8,4.6c-3.7,5.7-17.5-3.5-21.1,2.5
				C560.4,286.6,583,285.5,584.2,288.7z M607.3,188.8c0.5-4.3,1.7-8.5,2.6-12.7c0.7-3.2,0.4-7.3,1.7-10.2c1.8-3.9,5.9-4.9,7.1-8.3
				c1.2-3.5-1.5-8.9-2.9-12c-1-2.3-1.4-5.5-2.3-7.4c-1.1-2.5,0.3-3.1-3.6-3.7c-3.3-0.6-1.7,0.8-4.1,1.6c-6.1,2.2-13.2,1.2-19.4,0
				c-1.9-0.4-5,0-6.5-1.1c-2-1.5-1.4-6.2-1.6-9.1c1.4,0.1,2.7,0.3,4.1,0.4c3.5,0,11.1-1.3,10.8-6.2c-0.3-4.4-3.9-1.4-6.5-0.7
				c-2.8,0.7-5.7,0.8-8.4,1.8c-0.3-4.2,0.4-12-1.7-15.8c-1.4-2.6-5.8-4.8-8-7.1c1.6-0.7,3.5-2,5.2-2.4c3-0.7,0.3,2.2,3.8,0.2
				c3.4-2,3.1-10.2,4.7-13.3c1.6-3.3,1-3.7,5.3-3.6c1.9,0,4,0.8,5.8,1.3c4.4,1.4,8.7,3.4,12.7,5.8c4.9-3.4-4.8-10.5-7.3-11.8
				c-5.4-2.6-9.2-2.6-14.6-1.1c0-5.1,1.9-10.2,0.9-15.4c2.5,0.3,5.9,4.1,8.3,5.6c3.5,2.1,7.1,4,10.6,5.9c2.8,1.5,6.8,2.6,8.2,5.7
				c1.3,2.8,0.2,6.9,0.8,9.9c3.3,17.5,17.9-4.7,27.3-0.3c12.7,5.9-14.5,13.1-13.3,17.5c0.7,2.8,4.7,1.7,6.4,3c1.4,1.1,3.7,5.4,5,6.9
				c0.7,0.8,2.9,1.2,3.4,2c0.4,0.8-0.3,4.3-0.3,5.5c-0.1,3.5,0.1,6.8,0.6,10.3c1.1,7.5,3,15,5.7,22.2c0.8,2,2,3.6,2.8,5.4
				c0.9,1.9,1-0.9,1.4,1.8c0.2,1.4-1.2,3.5-1.7,4.8c-4.7,10.9-13.8,23.1-21.8,31.8c-4.2,4.5-8.6,6.5-14.9,5.8
				C606.8,200.6,606.6,194.3,607.3,188.8z M540.8,216.3c3.3-3.4,6-7.1,8.8-11c4.1-5.8,8.1-12.6,13-17.7c9.1-9.7,25.2-16.3,38.4-16.3
				c-0.5,6.9-2.5,13.1-2.5,20.2c0,6.7,3,10.7,4,16.7c-7.7-2.4-22-5.4-29.9-2.2c-7.6,3-7.6,19.3-7.8,26.1c-0.2,4.5,1.1,12.5-0.9,16.6
				c-1.6,3.3-7.1,4.4-10.4,7.1c-4.3,3.5-6.6,7.8-8.6,12.8c-1.6,4-2.1,5.8-6.7,5.6c4.4-8,9.5-13.4,6-22.8c-2.7-7.1,3.3-16.6,6.9-23.4
				c1.2-2.3,12.6-20.7,6.7-21.8c-3.9-0.8-13.1,16.6-14.8,19.9C537.3,222.4,535.9,221.2,540.8,216.3z M491.7,310.1
				c-2.4,0.6-15.4,5.3-17.8,3.2c-2.6-2.2,3.4-13.4,4.4-15.3c5.3-10.3,12.4-20,20.7-28.1c7.5-7.3,14.6-15.7,21.3-23.7
				c3.9-4.6,8-8.9,11.7-13.6c2-2.6,2.1-4.1,5-4c5.3,0.2,3,3.6,1.9,6.7c-0.9,2.5-2.1,5.4-2.5,8c-0.6,4.3,1.5,6.1,2,9.9
				c0.9,5.9-2.9,9.7-6.1,14.5c-4.2,6.4-4.7,8.1-12.1,9.7c-7.1,1.5-13.6,3.8-20.5,6c-3.8,13.1,38.8-0.7,44.7-4.4
				c2.1,4.5,2.3,12.1-1.4,15.3c-3.9,3.4-14.8,6-19.7,8.2C513.6,306.9,501.9,307.8,491.7,310.1z M511,340.5c-6.4,0.5-16,3.1-9.6-5.9
				c4.6-6.6,10.7-11.4,17-16.2c4.6-3.5,8.8-8.6,14.2-10.9c5.6-2.4,13.9-3.2,20-3c6.5,0.2,37.8,9.7,39.5-0.5c3.1,2.8,4.6,2.5,8.2,3.9
				c4.3,1.8,8.4,4.7,12.7,6.7c2.6,1.2,6.9,4.5,9.8,4.3c3.3-0.2,4.7-3.7,7.1-5.7c6.6-5.5,15.1-9.7,22.4-14.1c6-3.7,11-8,17.8-10.6
				c-7.6,15-15.7,29.6-23.8,44.3c-4.3,7.8-8.7,15.5-12.9,23.4c-2.1,4.1-5.7,14.2-9.2,15.4c-3.9,1.3-9.3-3.3-12.7-5.1
				c-6.4-3.6-13.5-6.1-20.3-8.8c-12.1-4.9-24.5-8.5-37.1-11.5C539.8,342.8,525.6,339.3,511,340.5z M675.1,299.8
				c1.4-3.9,2.4-14.4,7-15.5c-0.6,5.7-3.3,10.7-4.6,16.2c-1.2,5.4-2.2,10.9-3.5,16.3c-2.8,11.6-4.7,23.4-7.6,35.1
				c-5.6,23.3-8.5,47.2-13.3,70.7c-0.4,3.2-0.7,6.6-1.8,9.6c-4.5-5.9-10.1-9.9-16.7-13.2c-3.8-1.9-6.6-2.6-10.5-3.3
				c-2.1-0.4-6.6-0.6-8.3-1.5c2.5-6.1,3.5-13,6.1-18.8c1.6-3.7,5.1-6.3,7.6-9.7c7.7-10.3,14.2-21.1,20.4-32.3
				c5.9-10.7,11.4-21.3,16.6-32.3C669.8,313.9,672.6,307,675.1,299.8z M421.3,647c2.5,13.9,10.9,27.4,12.1,41.5
				c1.2,14.9-23.5,11.9-33.4,13.2c-12.1,1.6-24.6,4.3-36.5,7.5c-6.6,1.8-12.6,5.8-19.1,7.6c-5.5,1.5-13.8,0.3-19.2-1.4
				c17.2-8.6,33.8-18.8,50.1-28.9c4-2.4,7.8-5.1,12-7.1c3.5-1.7,7.3-2.6,9.7-6c6.2-8.9-2.5-20.2-6.6-27.9c4.2,0.9,8.4,1.8,12.6,2.7
				C409.3,648.2,415.2,648.4,421.3,647z M476.4,694.2c-3.8-1.8-6.7-19.8-7.5-24.2c-1.6-8.4-3.6-16.3-4.6-24.7
				c-1.8-15.3-5.1-30.5-7.6-45.8c-2.8-16.9-3.5-33.9-6-50.8c-1.2-7.8-2.3-15.5-3.8-23.3c-1.5-8.3-4.8-17.8-4.8-26.2
				c4.7,0.4,9.4,0.6,14.1,0.7c2.4,0.1,12.3-1,14.2,0.6c2.2,1.9-1.1,10.1-1.7,14c-0.9,6.2-1.4,12.9-1.5,19.1
				c-0.4,22.5-0.1,45.3,0,67.9c-1,3.5,0.4,8.9,0.7,12.5c0.4,4.9,0.5,9.8,0.8,14.8c0.5,8.1,1.1,16.2,2.4,24.2
				c1.1,6.8,1.6,13.6,2.2,20.3C473.9,680,477.2,687.8,476.4,694.2z M587.5,529.1c-2.8,10.7-7.7,23.8-7.3,34.8c0.4,1.8,0,2.6-1.1,2.3
				c1.2-14.6-0.6-29.6,0.1-44.3c0.4-7.4,1.1-14.6,0.5-21.9c-0.4-4.9-0.3-4.7,4.7-5.8c3.7-0.7,7.4-1.1,11.1-1.6
				C592.3,504.6,590.6,517,587.5,529.1z M643.7,460.6c-1.4,1.1-2,3.5-3.6,4.7c-1.9,1.6-4.8,2.7-6.9,3.8c-4.6,2.4-9.4,4.4-14.4,6.4
				c-5,1.9-10.2,3.8-15.5,4.9c-4.6,1-11.4,0.4-15.6,2.8c-19,2.2-37.5,4.7-56.7,5.4c-19.5,0.7-40-0.3-59.6-2.3c0-0.1,0-0.1,0-0.2
				c-0.1,0-0.3,0.1-0.4,0.1c-1.3,0.1-2.5,0-3.7,0c0,0-0.1,0-0.1,0c-0.1,0-0.2,0-0.3,0c-0.2,0-0.4,0-0.6,0c-0.7,0.2-1.6,0.3-3.1,0.2
				c-3.5-0.1-7.2-0.6-10.9-0.6c-8.9-0.1-18.8,0.1-27.6-1.8c-4.7-1-16.3-2.4-19.7-5.4c-2.2-1.9-2.6-7.7-3.5-10.5
				c-1.5-4.5-3.4-8.9-5.2-13.2c-1.8-4.3-3.6-8.7-5.6-12.9c-1.8-3.9-3-9.9-5.3-13.2c-3.6-5.1-12.6-7-18.3-10.1
				c-7-3.8-15.7-6-21.6-11.7c13.6,0.7,27.4,9.9,39.5,15.5c12.7,5.8,26.2,10.3,39.7,13.7c11.2,2.9,23.1,4.5,34.4,6.4
				c5.9,1,12.1,2.3,18.1,2.5c6.1,0.2,12.2-0.8,18.3,0.1c23.7,3.6,49,6.3,73.1,5.1c11.6-0.6,20-3.4,28.8-10.8
				c2.3-1.9,4.9-5.3,7.5-7.2c0.8-1.2,1.7-2.4,2.6-3.6c0.7-0.9,1.5-1.9,2.2-2.8c-0.6,0.8-0.2,0.1,0.2-0.2c0,0,0,0,0,0
				c0.4-0.9,1.1-1.8,1.9-2.3c1.9-3.5,6.1-0.5,9.4,1.3c2.2,1.2,4.5,2.7,6.7,4c4.9,2.9,9.9,6.5,13.8,10.7c4.3,4.6,7.8,8.2,7.3,14.4
				C648.6,459.5,647.5,457.7,643.7,460.6z M687.4,363.4c-4.7,24.5-8.9,49.8-12.4,74.7c-2.2,19.7-4.1,39.9-7,59.7
				c-3.1,21.8-6.3,44.3-7.4,66.2c-1,20-2.1,39.7-2.5,59.7c-0.2,10.2-1.2,20.6-0.7,30.6c0.6,10.4,1.8,23.9-0.8,34.1
				c-3.1-2.5-3.5-6.4-5.5-9.6c-1.2-2.1-4.7-3.4-5.5-4.9c-1.3-2.3,0.2-10.1,0.1-12.9c-0.2-4-0.5-7.9-0.5-11.9
				c0.1-16.1-2.3-32.1-2.5-48.2c-0.2-26.3,0.2-53,4.1-79.1c4.2-27.8,9.6-55.7,13.5-83.5c1.6-11.5,3-23.8,5.9-34.9
				c3.4-13.5,4.7-27.4,8.4-40.9c3.7-13.2,7.9-26.5,10.1-40c1.2-7.1,3.2-14.1,4.2-21.2c0.8-5.2,2.5-9.7,2.7-14.9
				c4.3,1,8.5,2,12.8,3.1C697.9,314.1,692.1,338.6,687.4,363.4z M810.1,288.8c-0.1,3.2,0.1,5.8-2.5,7.4c-2.6,1.6-9.7,0.3-12.4,0.1
				c-7.6-0.5-15.6,0.1-23-1.1c-6.7-1.1-13.4-4.2-19.4-7c-10.9-5.1-22.4-8.9-34.4-10.8c-9-1.2-18.5-2.8-27.7-1.9
				c-6.6,0.7-15.3-1.2-21.6-4.2c-2.2-1-4.2-3-6.5-3.8c-1.6-0.5-4.1,0.3-5.3-0.3c-5.4-2.4,0.9-4.6,3.2-6.9c9-9.1-8.7-8.2-13.4-7.4
				c1.6-2.7,5.2-4.6,7.9-5.8c1.5-0.7,8.7-1.1,9.2-1.7c4.9-4.7-6.2-8.5-8.5-8.8c6.6-1.4,16.6,0.7,22.1,4.3c3.4,2.2,5.8,5.2,8.6,8.1
				c2.1,2.2,2.7,4.2,4.4,6.3c3.3,4.4,9.3,7,14.4,6.8c8.8-0.3,17.7,0.1,26.6,0.1c8.2,0,16.2-0.1,24.4,0.4c3.8,0.2,17.2,1.8,9.8-6
				c-2.5-2.7-9.2-4.1-12.6-6.4c-3.1-2.2-6.1-4.4-9.5-6c-6-2.7-13-5.7-17.2-11.1c-2-2.6-3.1-6.8-3.2-10.2c0-3.6,0.1-4,3.7-6.1
				c5.5-3.2,12.9-4.3,18.9-6.3c4.1-1.4,8.4-3.9,12.8-4.3c4.4-0.4,4.3,0.9,7.2,4.8c4.1,5.4,8.1,10.8,12.1,16.3
				c5.3,7.2,10.2,14.7,15.9,21.6c4.4,5.4,6.6,10.2,9.4,16.4C806.8,272.7,810.5,280.6,810.1,288.8z M723.6,239.2
				c4.4,3.8,8.8,7.7,13.3,11.5c-5.1,0.5-10.2-0.6-15.2-0.4C721.5,246.5,721.6,242.6,723.6,239.2z"/>
			<path class="st2" d="M688.9,659.6c9.3,3.6,19.2,5,28.6,8.3c8.4,3,16.2,7,24.5,10c0.5-3.8,0.7-10.3-0.7-14
				c-2-5.1-7.3-5.3-12.5-7.1c-12.7-4.4-26-5.4-38.6-10.6C692.5,650.4,691.5,655.8,688.9,659.6 M849.9,646.2
				c-20.1,0.6-39.4,5.3-59.2,8.2c-9.7,1.4-19.3,2.7-29,4c-3.7,0.5-10.5-0.1-13.2,3.1c-2.2,2.7,0.2,11.8-0.8,15.7
				c4.1,0.3,11.3-3.5,15.7-4.1c6.9-1,13.7-2.3,20.6-2.8c11-0.7,21.8-1.3,32.8-2.5c11.2-1.2,22-3.6,33.3-4.4c5.5-0.4,7.7,0.6,8-5.2
				c0.1-2.3,0.4-6-0.2-8.3c1-2.7,0.1-4.1-2.7-4C853.5,645.7,851.7,645.8,849.9,646.2 M811,627.7c5.4-0.5,10.9-1.2,16.4-1.6
				c1.1-0.1,6.7,0.3,7.6-0.8c1.3-1.5-0.1-6.8-0.4-8.4c-0.8-5.6-1.7-8.9-7.8-8.9c-5.2,0-10.5,1.1-15.6,1.6
				c-23.3,2.3-46.5,3.3-69.6,7.6c1.4,6,3,12.2,1.3,18.3c11.1,0.6,23.2-1.6,34-3.7C787.9,629.6,799.7,628.4,811,627.7 M774,571.4
				c-8.3,0-17.1,3.7-25.4,2.9c-0.1,1.5,2.5,0.3,3.2,1.7c1.6,0,2.1,0.5,1.6,1.5c0,0.7-0.3,1.1-1.1,1.2c-0.4,0-0.7,0.1-1.1,0.1
				c-1.6,0.1-1.9,1.1-0.8,3.2c-0.5,2.6,0.2,5.9,0.3,8.5c14.8-2,29.1-4.1,44-5c7-0.4,14.1-0.4,21.1-1c7.7-0.6,16.2,0.7,23.7-0.7
				c4-0.8,3.6-0.7,3.3-6c-0.2-3.2-0.1-7-2.7-9.3c-4.3-3.9-14.2-1.6-19.4-1.5C805.3,567.4,789.4,568.9,774,571.4 M782.6,646.3
				c22.3-2,44.5-6.5,67-6.5c-1.6-1.6-5-2-7-2.9c-2.3-1-4.4-3.1-6.6-3.9c-4.4-1.7-8.9,0.7-13.5,1.7c-10.9,2.5-22.2,2.6-33.1,5.1
				c-11.3,2.5-22.8,4.9-34.4,6.2c-5.5,0.6-11.4,1.9-16.8,0.4c-0.4-0.3-0.9-0.6-1.3-0.9c-0.5-2-1.8-2.6-4-1.6c-2.7-0.5-6.2,0.2-9,0.2
				c-0.1,1.1,10.1,4.6,12,5.4c4.7,2.1,7.9,3.6,12.9,2.7C760,650.2,771.1,647.8,782.6,646.3 M704,581.1c0.9,3.4,4.5,1.9,7.7,2.2
				c4.2,0.5,8.4,2,12.5,3.1c7.4,2,14.9,4,22.3,6.1c-0.3-3,0.4-9.8-1.2-12.5c-1.7-2.8-9.5-4-13.2-4.9c-9.2-2.1-19.1-0.9-28.5-0.5
				C703.8,576.8,703.9,578.9,704,581.1 M792.8,602.3c8.8-0.7,17.6-1.3,26.3-1.6c10.1-0.4,2.7-2,2.5-8.1c-13.2,2.1-26.6,2.5-39.7,4.3
				c-10.9,1.5-23.9,5.4-35.1,3.3c-5.3-1-10.6-1.4-16.2-1.9c-5.3-0.5-10.2-3-15.5-3.6c-5.8-0.7-11.8,2.6-17.6,3.5
				c-2.5,0.4-3,2-4.2-0.9c-1.2-3.1,2.2-5.6,3.6-7.4c1.6-2.1,0.9,1.3,1.8-2c0.2-0.9-0.4-3.3-0.5-4.3c-0.3-2.6-1.1-5.3-1.2-7.9
				c-0.1-2.3-0.1-5.9,2.4-7.3c1.6-0.8,2.7,0.4,4,0.1c10.6-1.8,23-2,33.8-0.2c11.6,1.9,21.7-3.2,33.1-5.2c13.5-2.4,27.1-2.8,40.6-3.8
				c11.6-0.9,32.8-5.4,37.2,9.4c1.3,4.2,3.1,15.8-0.3,19.3c-4.4,4.7-14.7,3.2-20.4,4.4c0.9,2.4,3.4,4.1,2.5,7c8,0.4,9.4,7.9,10.7,15
				c1.3,7.3-1.2,10.2,5.7,14c9.7,5.3,20,10.7,19.9,23.3c-0.1,6.3-0.8,15.9-7.3,19.2c-6.4,3.2-16.8,2.7-23.8,3.8
				c-13.6,2.3-27.3,4.9-41,6.3c-14.6,1.4-29.4,2.6-44,3.3c-8,0.4-14.8,1.6-22.5-1.1c-7.6-2.6-14.9-4.6-22.7-6.5
				c-7.7-1.9-31.3-4.5-24.4-17.7c1.1-2.1,4.9-3.8,5.5-5.8c1-3.2-2.3-5.7-2.2-8.6c0.3-5.3,6.2-6,10.4-6c-7.1-4.4,2.4-9.7,2.3-13.5
				c-0.1-6.6-8.4-10.9-8.8-16.5c-1.1-13.5,41.8,0.6,48.4,3.5c-5.1,7.5-28.7,1-35.7-0.1c1,2.5,1.9,4.8,2.2,7.4
				c0.2,2.1-0.6,4.5,0.2,6.6c1.2,3.3,1.1,2.7,5.2,3.6c3,0.7,6,1.5,9.1,2.2c4.7,1.1,12,4,16.6,3.9c4-0.1,3.2,1.1,4-3.4
				c0.4-2.4-0.3-5-0.7-7.3c-0.8-5-2.1-9.6,2.2-13.2c4.1-3.4,12.8-5,17.9-6.2C768.3,602.8,781.3,602.2,792.8,602.3"/>
			<path class="st2" d="M846.2,517.8c-12.2-2-24.6-2.5-36.9-1.9c0.7,3.1,1.3,6.1,2,9.2C822.9,522,834.6,520.3,846.2,517.8
				L846.2,517.8z M747.1,541.5c-4.9-0.4-1.5,1.8-0.3,5c1.5,3.9,1.2,8.9,1.5,13c14.3-5.5,31-8.7,46.2-10.5c7.2-0.9,14.5-1.1,21.8-1.5
				c2.1-0.1,9.9,0.8,11.5-0.7c1.2-1.1,0.3-7-0.8-8.3c-6.1-7.1-29.6-1-38.1-0.3C774.8,539.3,761.1,541.8,747.1,541.5L747.1,541.5z
				 M767.4,522.4c12.7,1.2,24.9,1.1,37.6,3c-1-8.1,0.2-10.1-9-10.5c-8.1-0.4-16.3-0.7-24.4-0.7c-18.2,0-36.4-0.3-54.7-0.3v8.2
				C733.9,520.3,750.5,523.5,767.4,522.4L767.4,522.4z M706.5,552.5c8,0,15.6,3,23.6,3.8c4.8,0.5,3.3,1.1,6.6,3.5
				c5.2,3.7,6.7,1.7,6-3.3c-2.2-17.2-24-13.4-36.5-14.3c0.8,4.1-1.1,7.6-3.9,10.4H706.5z M792.9,530.5c-11.5,0.2-23,0.8-34.4,0.6
				c-5.1-0.1-11.7-1.1-16.7-0.2c-3.7,0.6-6.7,2.5-10.8,3.2c5.9,3.2,8.9,1,15.1,0.3c6.2-0.7,12.5-0.7,18.8-1.1
				c10.2-0.6,21.2-3.1,31.3-2.4C796.3,529.4,795.2,529.3,792.9,530.5L792.9,530.5z M701.7,567.7c-5.3,0,2-6,2.9-6.6
				c-5.8,0-7.3-3.5-5.6-9.1c1.6-5.3,2.8-3.7-1.2-8.1c-3-3.3-3.5-5.8,0.1-9.5c3.6-3.8,11-2.7,14.2-5.8c5.5-5.3-1.6-15.9,6-20
				c5.1-2.8,13.4-2.4,19-3c5.5-0.6,11.1-0.7,16.6-0.7c12-0.2,24.4,1.8,36.4,3c4.4,0.4,9.2,2.2,13.5,2.2c4.4,0,9-1,13.5-0.9
				c5.2,0.1,10.3-0.3,15.7,0.6c4.1,0.7,13.8,1,17,4.1c10.6,10.3-14.5,15-18.8,16.1c4.4,4.8,4.2,11.2,3.5,17.2c2.1,0,5.7-0.9,6.8,1.4
				c1.3,2.9-3.6,3.7-4.8,4c-6.8,2-14.7,1.4-21.6,2.1c-13.9,1.4-27.7,2.2-41.5,4.9c-6.7,1.3-13.4,2.9-20.1,4.1
				c-1.2,0.2-2.3,0.4-3.5,0.5c-1.8-0.2-2.4,1-1.7,3.4c-1.9,0.9-8.8-1.4-11-1.7C724.8,563.9,713.8,564.8,701.7,567.7L701.7,567.7z"/>
			<path class="st2" d="M949.9,687.1c-7.9,6.2-15.3,12.1-23.9,17.5C932.1,704.4,952.3,694.8,949.9,687.1 M946.8,676.9
				c-4.3-3.7-8.6-3.3-14-4.5c-4.9-1-9.7-2.8-14.6-4c-3.9-0.9-7.7-2.2-11.5-3.1c-5.4-1.2-6,0.1-11,3c-17.7,10.1-37.6,17.1-56.2,25.3
				c5.5,4.8,17.8,5,24.7,6.6c5,1.1,9.8,2.7,14.6,4.4c4.5,1.7,11.6,5.5,16.4,5.6c4,0.1,7.2-3.8,10.6-5.9c4.5-2.8,9-5.5,13.5-8.2
				C928.7,690.4,937.7,683.4,946.8,676.9 M866.7,717.8c-2-2-8.2-1.9-10.8-2.5c-5.1-1.2-10-2.4-15.2-3.3c-8.3-1.4-21.4-2.1-22.3-12.9
				c-0.8-9,10.1-11.1,16.4-14.1c9.5-4.6,19.2-8.8,29-12.8c9.2-3.8,18.4-7,27.8-10.2c1.8-0.6,3.3-0.5,4.8-2c1.2-1.1,0.8-3.4,2.1-4.6
				c2.9-2.7,6.8-1.3,10.3-0.6c8,1.6,16.3,3.7,24,6.7c7.9,3.1,15.1,3.7,17,12.7c4.1-1.9,7.1-2.2,6.6,3.4c-0.1,1.6-1.3,3.4-1.6,5.1
				c-0.4,2.5,0.3,5.1-0.1,7.6c-1.5,9.1-13.8,15.9-21.4,19.5c-9.4,4.4-21.5,10.9-32,11.8C890,722.6,877.8,718.2,866.7,717.8"/>
			<path class="st2" d="M578.6,85.9c5-1.3,6.2,10.4,3.3,11.7C577.8,99.5,578.3,87.9,578.6,85.9"/>
			<path class="st2" d="M892.5,680.5c-4.6-0.3-11.1-1.5-4.1-4.8c4.4-2.1,11-2.2,15.7-1.4c3.2,0.6,8.1,3.3,3.1,6.7
				C904.4,683.1,896,680.6,892.5,680.5"/>
			<path class="st2" d="M887.4,688.8c-1.3-0.2-2.7-0.3-4-0.4C884.4,686.5,887.5,686,887.4,688.8"/>
		</g>
	</g>
</g>
</svg>
